<?xml version="1.0" ?><!DOCTYPE svg  PUBLIC '-//W3C//DTD SVG 1.1//EN'  'http://www.w3.org/Graphics/SVG/1.1/DTD/svg11.dtd'><svg enable-background="new 0 0 24 24" height="24px" id="Layer_1" version="1.1" viewBox="0 0 24 24" width="24px" xml:space="preserve" xmlns="http://www.w3.org/2000/svg" xmlns:xlink="http://www.w3.org/1999/xlink"><g><g><g><path d="M4.8,21c-0.4,0-0.8-0.3-1-0.7c0-0.1,0-0.1,0-0.2l0-2.5c0-0.1,0-0.1,0-0.2c0-0.2,0-0.6,0.2-0.9c0.2-0.2,0.4-0.3,0.6-0.4     l0.2,0c0.4-0.1,0.7-0.2,1-0.3c0.5-0.3,0.9-0.8,1.1-1.4c-1.5,0-3.1,0-4.6,0c-0.2,0-0.4,0-0.6-0.1c-0.7-0.2-1.1-0.8-1.1-1.5     c0-1.9,0-3.9,0-5.8l0-2.2c0-0.4,0-1,0.5-1.5C1.3,3.1,1.7,3,2,3l7.7,0c1.1,0,1.6,0.6,1.6,1.9l0,0.3c0,1.3,0,6.2,0,8.8     c0,2-0.8,3.8-2.3,5.2l-0.2,0.2c-0.9,0.7-1.7,1.1-2.6,1.4C5.8,20.9,5.3,20.9,5,21C4.9,21,4.8,21,4.8,21z M4.8,20v0.5V20     c0.4-0.1,0.8-0.1,1.1-0.2c0.8-0.2,1.5-0.6,2.2-1.2l0.2-0.2c1.3-1.2,2-2.7,2-4.5c0-2.5,0-7.5,0-8.8l0-0.3C10.3,4,10.1,4,9.8,4L2,4     C1.9,4,1.8,4,1.7,4.2C1.5,4.3,1.5,4.4,1.5,4.9v2.2c0,1.9,0,3.9,0,5.8c0,0.2,0.2,0.4,0.4,0.5c0.1,0,0.2,0,0.3,0c0,0,0,0,0,0     c1.7,0,3.5,0,5.2,0c0.2,0,0.3,0.1,0.4,0.2C8,13.7,8,13.9,8,14l-0.1,0.4c-0.2,1-0.8,1.7-1.6,2.2C5.9,16.9,5.4,17,5,17.1l-0.2,0     c0,0-0.1,0-0.1,0.1c0,0,0,0.1,0,0.1c0,0.1,0,0.2,0,0.3l0,0.6L4.8,20C4.8,20,4.8,20,4.8,20L4.8,20z"/></g><g><path d="M8.6,14.4C8.6,14.4,8.6,14.4,8.6,14.4c-1.8,0-3.5,0-5.3,0c-0.3,0-0.5-0.2-0.5-0.5s0.2-0.5,0.5-0.5c1.8,0,3.5,0,5.3,0     c0.3,0,0.5,0.2,0.5,0.5C9.1,14.2,8.9,14.4,8.6,14.4z"/></g></g><g><g><path d="M17,21c-0.4,0-0.8-0.3-1-0.7c0-0.1,0-0.1,0-0.2l0-2.5c0-0.1,0-0.1,0-0.2c0-0.2,0-0.6,0.2-0.9c0.2-0.2,0.4-0.3,0.6-0.4     l0.2,0c0.4-0.1,0.7-0.2,1-0.3c0.5-0.3,0.9-0.8,1.1-1.4c-1.5,0-3.1,0-4.6,0c-0.2,0-0.4,0-0.6-0.1c-0.7-0.2-1.1-0.8-1.1-1.5     c0-1.9,0-3.8,0-5.7l0-2.3c0-0.4,0-1,0.5-1.5c0.3-0.3,0.6-0.4,1-0.4l7.7,0c1.1,0,1.6,0.6,1.6,1.9l0,0.3c0,1.3,0,6.2,0,8.8     c0,2-0.8,3.8-2.3,5.2L21,19.3c0,0-0.1,0.1-0.1,0.1c-0.8,0.7-1.7,1.1-2.6,1.3c-0.4,0.1-0.8,0.2-1.2,0.2C17.1,21,17,21,17,21z      M17,20v0.5V20c0.4-0.1,0.8-0.1,1.1-0.2c0.8-0.2,1.5-0.6,2.2-1.2l0.2-0.2c1.3-1.2,2-2.7,2-4.5c0-2.5,0-7.5,0-8.8l0-0.3     C22.5,4,22.3,4,21.9,4l-7.7,0c-0.1,0-0.2,0-0.3,0.1c-0.1,0.1-0.2,0.3-0.2,0.7l0,2.3c0,1.9,0,3.8,0,5.7c0,0.2,0.2,0.4,0.4,0.5     c0.1,0,0.2,0,0.3,0c1.7,0,3.5,0,5.2,0c0.2,0,0.3,0.1,0.4,0.2c0.1,0.1,0.1,0.3,0.1,0.4l-0.1,0.4c-0.2,1-0.8,1.7-1.6,2.2     c-0.4,0.2-0.8,0.4-1.3,0.5l-0.2,0c0,0-0.1,0-0.1,0.1c0,0,0,0.1,0,0.1c0,0.1,0,0.2,0,0.3L17,20C17,20,17,20,17,20L17,20z"/></g><g><path d="M20.8,14.4C20.8,14.4,20.8,14.4,20.8,14.4c-1.8,0-3.5,0-5.3,0c-0.3,0-0.5-0.2-0.5-0.5s0.2-0.5,0.5-0.5c1.8,0,3.5,0,5.3,0     c0.3,0,0.5,0.2,0.5,0.5C21.3,14.2,21.1,14.4,20.8,14.4z"/></g></g></g></svg>